<svg t="1653895610531" class="icon" viewBox="0 0 1024 1024" version="1.1" xmlns="http://www.w3.org/2000/svg" p-id="2029" width="200" height="200"><path d="M731.392 115.1488H302.0288c-99.2768 0-180.0192 80.7424-180.0192 180.0192v429.312c0 99.2768 80.7424 180.0192 180.0192 180.0192h429.312c99.2768 0 180.0192-80.7424 180.0192-180.0192V295.168c0.0512-99.2768-80.6912-180.0192-179.968-180.0192z" fill="#6FE0FF" p-id="2030"></path><path d="M835.5328 421.9392c-266.3936 0-482.3552 215.9616-482.3552 482.3552v0.2048h378.2144c99.2768 0 180.0192-80.7424 180.0192-180.0192V427.8784c-24.7296-3.8912-50.0224-5.9392-75.8784-5.9392z" fill="#55D7FF" p-id="2031"></path><path d="M122.0096 497.5104c14.848 1.3824 29.9008 2.0992 45.1584 2.0992 232.8576 0 427.1616-165.0176 472.4224-384.4608H302.0288c-99.2768 0-180.0192 80.7424-180.0192 180.0192v202.3424z" fill="#9AEFFF" p-id="2032"></path><path d="M376.6784 661.6576c-83.712 0-151.808-68.096-151.808-151.808s68.096-151.808 151.808-151.808c17.3568 0 31.3856 14.08 31.3856 31.3856s-14.08 31.3856-31.3856 31.3856c-49.0496 0-88.9856 39.936-88.9856 88.9856s39.936 88.9856 88.9856 88.9856c17.3568 0 31.3856 14.08 31.3856 31.3856s-14.0288 31.488-31.3856 31.488zM576.256 661.6576c-83.712 0-151.808-68.096-151.808-151.808s68.096-151.808 151.808-151.808c17.3568 0 31.3856 14.08 31.3856 31.3856s-14.08 31.3856-31.3856 31.3856c-49.0496 0-88.9856 39.936-88.9856 88.9856s39.936 88.9856 88.9856 88.9856c17.3568 0 31.3856 14.08 31.3856 31.3856s-14.08 31.488-31.3856 31.488zM775.7824 661.6576c-83.712 0-151.808-68.096-151.808-151.808s68.096-151.808 151.808-151.808c17.3568 0 31.3856 14.08 31.3856 31.3856s-14.08 31.3856-31.3856 31.3856c-49.0496 0-88.9856 39.936-88.9856 88.9856s39.936 88.9856 88.9856 88.9856c17.3568 0 31.3856 14.08 31.3856 31.3856s-14.0288 31.488-31.3856 31.488z" fill="#FFFFFF" p-id="2033"></path></svg>